<svg width="1146" height="1146" viewBox="0 0 1146 1146" fill="none" xmlns="http://www.w3.org/2000/svg">
<path d="M1143.71 527.16C1171.21 880.128 880.128 1171.21 527.16 1143.71C249.828 1123.08 22.9197 896.172 2.29166 618.84C-25.2123 265.872 265.872 -25.2123 618.84 2.29166C896.172 22.9197 1123.08 249.828 1143.71 527.16Z" fill="#2BB696"/>
<path d="M403.397 410.268L206.285 611.964C162.737 655.512 162.737 728.855 206.285 774.695C249.833 818.243 320.885 818.243 364.433 774.695L717.401 410.268C632.597 320.88 490.493 320.88 403.397 410.268ZM937.433 394.224C893.885 350.676 822.833 350.676 779.285 394.224L428.609 758.651C515.705 848.039 655.517 848.039 742.613 758.651L939.725 556.956C980.981 511.116 980.981 440.064 937.433 394.224Z" fill="white"/>
</svg>
